<svg width="200" height="230" viewBox="0 0 200 230" fill="none" xmlns="http://www.w3.org/2000/svg">
<g clip-path="url(#clip0_267_157)">
<g opacity="0.999993">
<mask id="mask0_267_157" style="mask-type:luminance" maskUnits="userSpaceOnUse" x="0" y="0" width="200" height="230">
<path d="M200 0L0 0L0 229.412H200V0Z" fill="white"/>
</mask>
<g mask="url(#mask0_267_157)">
<mask id="mask1_267_157" style="mask-type:luminance" maskUnits="userSpaceOnUse" x="-10" y="0" width="210" height="230">
<g opacity="0.999993">
<path d="M200 0L-9.77783 0V229.412H200V0Z" fill="white"/>
</g>
</mask>
<g mask="url(#mask1_267_157)">
<path d="M-165.56 121.628C-139.036 128.779 -86.8705 223.046 -124.005 237.674C-144.043 245.566 -156.542 205.884 -109.859 117.728C-92.4703 83.9216 -52.2116 31.3273 -30.2846 91.3978C-8.35758 151.469 -13.4857 195.091 -18.7906 209.394C-26.4533 221.421 -45.1385 237.674 -58.5776 206.468C-72.0167 175.263 -42.0031 68.1991 -16.1381 24.1111C-6.41241 7.53316 17.4598 -7.0944 36.027 38.7386C60.7146 99.6793 81.1191 169.412 50.1734 209.394C19.228 249.375 -1.99163 149.907 69.6249 106.025L144.778 60.1924" stroke="#F3F5F9" stroke-width="13.3333"/>
<path d="M166.359 72.6218C178.917 72.6218 189.097 61.3937 189.097 47.543C189.097 33.6925 178.917 22.4644 166.359 22.4644C153.801 22.4644 143.621 33.6925 143.621 47.543C143.621 61.3937 153.801 72.6218 166.359 72.6218Z" fill="#F3F5F9" stroke="#FF6600" stroke-width="5.80488"/>
<path fill-rule="evenodd" clip-rule="evenodd" d="M158.123 57.3566C159.86 58.6596 162.905 57.3168 168.992 54.631C170.291 54.0581 170.94 53.7717 171.45 53.279C171.579 53.1535 171.701 53.0187 171.815 52.8756C172.262 52.3138 172.522 51.5978 173.041 50.1656C175.476 43.4511 176.693 40.0939 175.512 38.1764C175.232 37.7218 174.876 37.3296 174.464 37.0206C172.725 35.7175 169.682 37.0605 163.594 39.7461C162.296 40.319 161.646 40.6056 161.137 41.0981C161.007 41.2236 160.885 41.3584 160.771 41.5016C160.324 42.0633 160.065 42.7796 159.546 44.2117C157.11 50.926 155.893 54.2832 157.075 56.2008C157.355 56.6556 157.71 57.0475 158.123 57.3566ZM162.665 47.1887C162.665 44.9786 164.29 43.1871 166.293 43.1871C168.297 43.1871 169.921 44.9786 169.921 47.1887C169.921 49.3985 168.297 51.1901 166.293 51.1901C164.29 51.1901 162.665 49.3985 162.665 47.1887ZM164.116 47.1887C164.116 45.8626 165.091 44.7877 166.293 44.7877C167.495 44.7877 168.47 45.8626 168.47 47.1887C168.47 48.5146 167.495 49.5896 166.293 49.5896C165.091 49.5896 164.116 48.5146 164.116 47.1887Z" fill="#FF6600"/>
</g>
</g>
</g>
</g>
<defs>
<clipPath id="clip0_267_157">
<rect width="200" height="229.412" fill="white"/>
</clipPath>
</defs>
</svg>
