<?xml version="1.0" encoding="UTF-8"?> <svg xmlns="http://www.w3.org/2000/svg" width="50" height="50" viewBox="0 0 50 50" fill="none"><g clip-path="url(#clip0_70_105)"><path d="M25.1132 48.2264C37.8783 48.2264 48.2264 37.8783 48.2264 25.1132C48.2264 12.3481 37.8783 2 25.1132 2C12.3481 2 2 12.3481 2 25.1132C2 37.8783 12.3481 48.2264 25.1132 48.2264Z" fill="white" stroke="url(#paint0_linear_70_105)" stroke-width="3.77359"></path><mask id="mask0_70_105" style="mask-type:alpha" maskUnits="userSpaceOnUse" x="13" y="13" width="24" height="24"><rect x="13" y="13" width="24" height="24" fill="#D9D9D9"></rect></mask><g mask="url(#mask0_70_105)"><path d="M18.3077 34.5C17.8026 34.5 17.375 34.325 17.025 33.975C16.675 33.625 16.5 33.1974 16.5 32.6923V19.3077C16.5 18.8026 16.675 18.375 17.025 18.025C17.375 17.675 17.8026 17.5 18.3077 17.5H19.6923V15.3846H21.2307V17.5H28.8077V15.3846H30.3076V17.5H31.6922C32.1974 17.5 32.625 17.675 32.975 18.025C33.325 18.375 33.5 18.8026 33.5 19.3077V24.7711C33.2602 24.666 33.0153 24.5811 32.7654 24.5163C32.5154 24.4516 32.2602 24.4007 32 24.3635V23.3077H18V32.6923C18 32.7692 18.032 32.8397 18.0961 32.9038C18.1602 32.9679 18.2308 33 18.3077 33H24.8096C24.8942 33.2769 24.9965 33.5388 25.1164 33.7855C25.2362 34.0323 25.3724 34.2705 25.525 34.5H18.3077ZM31.1923 35.5C29.9436 35.5 28.8814 35.0622 28.0058 34.1865C27.1301 33.3109 26.6923 32.2487 26.6923 31C26.6923 29.7513 27.1301 28.6891 28.0058 27.8135C28.8814 26.9378 29.9436 26.5 31.1923 26.5C32.441 26.5 33.5032 26.9378 34.3788 27.8135C35.2544 28.6891 35.6922 29.7513 35.6922 31C35.6922 32.2487 35.2544 33.3109 34.3788 34.1865C33.5032 35.0622 32.441 35.5 31.1923 35.5ZM32.8577 33.2884L33.4807 32.6654L31.6346 30.8192V28.0577H30.75V31.1808L32.8577 33.2884Z" fill="#FF6600"></path></g></g><defs><linearGradient id="paint0_linear_70_105" x1="25.1132" y1="3.88679" x2="25.1132" y2="46.3396" gradientUnits="userSpaceOnUse"><stop stop-color="#FFDCA5"></stop><stop offset="1" stop-color="#FF6600"></stop></linearGradient><clipPath id="clip0_70_105"><rect width="50" height="50" fill="white"></rect></clipPath></defs></svg> 