<?xml version="1.0" encoding="UTF-8"?> <svg xmlns="http://www.w3.org/2000/svg" width="50" height="50" viewBox="0 0 50 50" fill="none"><g clip-path="url(#clip0_70_112)"><path d="M25.1132 48.2264C37.8783 48.2264 48.2264 37.8783 48.2264 25.1132C48.2264 12.3481 37.8783 2 25.1132 2C12.3481 2 2 12.3481 2 25.1132C2 37.8783 12.3481 48.2264 25.1132 48.2264Z" fill="white" stroke="url(#paint0_linear_70_112)" stroke-width="3.77359"></path><mask id="mask0_70_112" style="mask-type:alpha" maskUnits="userSpaceOnUse" x="13" y="13" width="24" height="24"><rect x="13" y="13" width="24" height="24" fill="#D9D9D9"></rect></mask><g mask="url(#mask0_70_112)"><path d="M20.1154 35.75L23.1231 20.4019C23.2038 19.9955 23.3968 19.6859 23.7019 19.473C24.007 19.2602 24.3256 19.1538 24.6577 19.1538C24.9961 19.1538 25.3102 19.2275 25.6 19.375C25.8897 19.5224 26.1218 19.7436 26.2961 20.0384L27.2961 21.6384C27.6089 22.141 28.0429 22.6073 28.598 23.0375C29.1532 23.4676 29.8064 23.7936 30.5577 24.0154V22.1538H31.75V35.7499H30.5577V25.5519C29.7192 25.3685 28.9247 25.0496 28.174 24.5951C27.4234 24.1406 26.7532 23.5608 26.1634 22.8557L25.4384 26.4903L27.5576 28.5096V35.7499H26.0577V29.798L23.5153 27.6442L21.7057 35.7499L20.1154 35.75ZM20.3288 25.8269L18.4635 25.4749C18.2609 25.4314 18.1006 25.3259 17.9827 25.1586C17.8648 24.9913 17.8276 24.8012 17.8712 24.5884L18.6212 20.6634C18.7148 20.2006 18.966 19.8311 19.375 19.5548C19.784 19.2785 20.2199 19.1872 20.6827 19.2807L21.5827 19.4673L20.3288 25.8269ZM26.3077 18.3461C25.8025 18.3461 25.3686 18.1647 25.0058 17.8019C24.6429 17.4391 24.4615 17.0051 24.4615 16.5C24.4615 15.9948 24.6429 15.5609 25.0058 15.198C25.3686 14.8352 25.8025 14.6538 26.3077 14.6538C26.8128 14.6538 27.2468 14.8352 27.6096 15.198C27.9724 15.5609 28.1538 15.9948 28.1538 16.5C28.1538 17.0051 27.9724 17.4391 27.6096 17.8019C27.2468 18.1647 26.8128 18.3461 26.3077 18.3461Z" fill="#FF6600"></path></g></g><defs><linearGradient id="paint0_linear_70_112" x1="25.1132" y1="3.88679" x2="25.1132" y2="46.3396" gradientUnits="userSpaceOnUse"><stop stop-color="#FFDCA5"></stop><stop offset="1" stop-color="#FF6600"></stop></linearGradient><clipPath id="clip0_70_112"><rect width="50" height="50" fill="white"></rect></clipPath></defs></svg> 