<?xml version="1.0" encoding="UTF-8"?> <svg xmlns="http://www.w3.org/2000/svg" width="50" height="50" viewBox="0 0 50 50" fill="none"><g clip-path="url(#clip0_70_63)"><path d="M25.1132 48.2264C37.8783 48.2264 48.2264 37.8783 48.2264 25.1132C48.2264 12.3481 37.8783 2 25.1132 2C12.3481 2 2 12.3481 2 25.1132C2 37.8783 12.3481 48.2264 25.1132 48.2264Z" fill="white" stroke="url(#paint0_linear_70_63)" stroke-width="3.77359"></path><mask id="mask0_70_63" style="mask-type:alpha" maskUnits="userSpaceOnUse" x="13" y="13" width="24" height="24"><rect x="13" y="13" width="24" height="24" fill="#D9D9D9"></rect></mask><g mask="url(#mask0_70_63)"><path d="M25 35C23.2368 35 21.796 34.7383 20.6776 34.215C19.5592 33.6916 19 33.0131 19 32.1795C19 31.6798 19.2137 31.2357 19.6411 30.8471C20.0685 30.4586 20.6588 30.1394 21.412 29.8896L21.8615 31.355C21.5324 31.4734 21.2561 31.6065 21.0327 31.7544C20.8093 31.9024 20.6642 32.044 20.5973 32.1795C20.7699 32.545 21.2832 32.8501 22.1374 33.0947C22.9916 33.3393 23.9458 33.4616 25 33.4616C26.0475 33.4616 27.0027 33.3393 27.8656 33.0947C28.7285 32.8501 29.2462 32.545 29.4188 32.1795C29.3519 32.044 29.2067 31.904 28.9833 31.7594C28.7599 31.6147 28.4836 31.4799 28.1546 31.355L28.6141 29.8896C29.3672 30.1394 29.9532 30.4586 30.3719 30.8471C30.7906 31.2357 31 31.6798 31 32.1795C31 33.0131 30.4408 33.6916 29.3224 34.215C28.204 34.7383 26.7632 35 25 35ZM25 31.6075C24.8288 31.6075 24.6716 31.5519 24.5284 31.4408C24.3853 31.3297 24.2789 31.1867 24.2094 31.0118C23.7826 29.8639 23.2749 28.901 22.6863 28.1232C22.0977 27.3455 21.5298 26.6002 20.9826 25.8876C20.4528 25.1749 19.9987 24.4365 19.6201 23.6725C19.2415 22.9086 19.0522 21.9664 19.0522 20.8461C19.0522 19.2091 19.6271 17.8254 20.7769 16.6953C21.9268 15.5651 23.3344 15 25 15C26.6656 15 28.0732 15.5651 29.2231 16.6953C30.3729 17.8254 30.9478 19.2091 30.9478 20.8461C30.9478 21.9664 30.7629 22.9086 30.393 23.6725C30.0231 24.4365 29.5646 25.1749 29.0174 25.8876C28.4876 26.6002 27.9241 27.3455 27.3268 28.1232C26.7294 28.901 26.2174 29.8639 25.7906 31.0118C25.7211 31.1867 25.6147 31.3297 25.4716 31.4408C25.3284 31.5519 25.1712 31.6075 25 31.6075ZM25 22.7199C25.5284 22.7199 25.9782 22.5374 26.3495 22.1725C26.7207 21.8077 26.9063 21.3655 26.9063 20.8461C26.9063 20.3268 26.7207 19.8846 26.3495 19.5197C25.9782 19.1548 25.5284 18.9724 25 18.9724C24.4716 18.9724 24.0218 19.1548 23.6505 19.5197C23.2793 19.8846 23.0937 20.3268 23.0937 20.8461C23.0937 21.3655 23.2793 21.8077 23.6505 22.1725C24.0218 22.5374 24.4716 22.7199 25 22.7199Z" fill="#FF6600"></path></g></g><defs><linearGradient id="paint0_linear_70_63" x1="25.1132" y1="3.88679" x2="25.1132" y2="46.3396" gradientUnits="userSpaceOnUse"><stop stop-color="#FFDCA5"></stop><stop offset="1" stop-color="#FF6600"></stop></linearGradient><clipPath id="clip0_70_63"><rect width="50" height="50" fill="white"></rect></clipPath></defs></svg> 