<?xml version="1.0" encoding="UTF-8"?> <svg xmlns="http://www.w3.org/2000/svg" viewBox="0 0 50 50" fill="none"><g clip-path="url(#clip0_70_98)"><path d="M25.1132 48.2264C37.8783 48.2264 48.2264 37.8783 48.2264 25.1132C48.2264 12.3481 37.8783 2 25.1132 2C12.3481 2 2 12.3481 2 25.1132C2 37.8783 12.3481 48.2264 25.1132 48.2264Z" fill="white" stroke="url(#paint0_linear_70_98)" stroke-width="3.77359"></path><mask id="mask0_70_98" style="mask-type:alpha" maskUnits="userSpaceOnUse" x="13" y="13" width="24" height="24"><rect x="13" y="13" width="24" height="24" fill="#D9D9D9"></rect></mask><g mask="url(#mask0_70_98)"><path d="M24.0975 34.8509H17.591C17.0067 34.8509 16.5121 34.6484 16.1073 34.2436C15.7024 33.8387 15.5 33.3441 15.5 32.7598V19.591C15.5 19.0067 15.7024 18.5121 16.1073 18.1073C16.5121 17.7024 17.0067 17.5 17.591 17.5H35.3867C35.971 17.5 36.4656 17.7024 36.8705 18.1073C37.2753 18.5121 37.4778 19.0067 37.4778 19.591V25.7083H34.8596L29.7233 30.8446L26.4266 27.5835L21.6284 32.3817L24.0975 34.8509ZM29.7233 36.8973L25.2076 32.3817L26.4266 31.1627L29.7233 34.4238L36.281 27.866L37.5 29.1206L29.7233 36.8973ZM17.2351 22.0157V25.7083H35.7427V22.0157H17.2351Z" fill="#FF6600"></path></g></g><defs><linearGradient id="paint0_linear_70_98" x1="25.1132" y1="3.88679" x2="25.1132" y2="46.3396" gradientUnits="userSpaceOnUse"><stop stop-color="#FFDCA5"></stop><stop offset="1" stop-color="#FF6600"></stop></linearGradient><clipPath id="clip0_70_98"><rect width="50" height="50" fill="white"></rect></clipPath></defs></svg> 